<svg width="44" height="44" viewBox="0 0 44 44" fill="none" xmlns="http://www.w3.org/2000/svg">
<path d="M42 42.0009H2M26 16.0009H18M26 28.0009H18M11.002 14.0009H10.984M11.004 22.0009H10.984M11.004 30.0009H10.984M33.002 14.0009H32.984M33.004 22.0009H32.984M33.004 30.0009H32.984M40 12.9709C40 10.7749 40 9.67893 39.448 8.75093C38.896 7.82293 37.878 7.21893 35.844 6.00093L33.256 4.45293C30.062 2.54093 28.464 1.58493 27.232 2.17693C26 2.76893 26 4.49093 26 7.93493V42.0009H40V12.9709ZM4 12.9709C4 10.7749 4 9.67893 4.552 8.75093C5.104 7.82293 6.122 7.21893 8.156 6.00093L10.744 4.45293C13.94 2.53893 15.536 1.58093 16.768 2.17493C18 2.76893 18 4.49093 18 7.93493V42.0009H4V12.9709Z" stroke="white" stroke-width="3" stroke-linecap="round" stroke-linejoin="round"/>
</svg>
